<?xml version="1.0" standalone="no"?><!DOCTYPE svg PUBLIC "-//W3C//DTD SVG 1.1//EN" "http://www.w3.org/Graphics/SVG/1.1/DTD/svg11.dtd"><svg t="1698399640085" class="icon" viewBox="0 0 1024 1024" version="1.1" xmlns="http://www.w3.org/2000/svg" p-id="98960" xmlns:xlink="http://www.w3.org/1999/xlink" width="200" height="200"><path fill="#f44033" d="M512 489.984q43.989333 0 75.008-31.018667t31.018667-75.008-31.018667-75.008T512 277.930667t-75.008 31.018666-31.018667 75.008 31.018667 75.008 75.008 31.018667z m0-403.968q123.989333 0 210.986667 86.997333T809.984 384q0 61.994667-31.018667 141.994667t-75.008 150.016-86.997333 130.986666-73.002667 96.981334l-32 34.005333q-11.989333-13.994667-32-36.992t-72.021333-91.989333-91.008-134.016-70.997333-146.986667T213.930667 384q0-123.989333 86.997333-210.986667t210.986667-86.997333z" p-id="98961"></path></svg>